<?xml version="1.0" encoding="UTF-8"?>
<svg width="85px" height="35px" viewBox="0 0 85 35" version="1.1" xmlns="http://www.w3.org/2000/svg" xmlns:xlink="http://www.w3.org/1999/xlink">
    <!-- Generator: Sketch 48.2 (47327) - http://www.bohemiancoding.com/sketch -->
    <title>logo</title>
    <desc>Created with Sketch.</desc>
    <defs>
        <polygon id="path-1" points="0 0.305655529 12.7195861 0.305655529 12.7195861 14.21875 0 14.21875"></polygon>
        <polygon id="path-3" points="0.153635252 0.30209375 10.119359 0.30209375 10.119359 14.217875 0.153635252 14.217875"></polygon>
        <polygon id="path-5" points="13.6217949 0.546546875 84.6935641 0.546546875 84.6935641 34.4659219 13.6217949 34.4659219"></polygon>
        <linearGradient x1="0%" y1="50%" x2="100%" y2="50%" id="linearGradient-7">
            <stop stop-color="#558BFF" offset="0%"></stop>
            <stop stop-color="#8170FF" offset="100%"></stop>
        </linearGradient>
    </defs>
    <g id="Home" stroke="none" stroke-width="1" fill="none" fill-rule="evenodd" transform="translate(-12.000000, -17.000000)">
        <g id="header" transform="translate(0.000000, 17.000000)">
            <g id="logo" transform="translate(12.000000, 0.000000)">
                <g id="Page-1" transform="translate(0.000000, 19.687500)">
                    <g id="Group-3" transform="translate(0.000000, 0.791875)">
                        <mask id="mask-2" fill="white">
                            <use xlink:href="#path-1"></use>
                        </mask>
                        <g id="Clip-2"></g>
                        <path d="M12.4618718,10.7199531 L11.0648205,9.81323437 C10.8185385,9.65354687 10.4970641,9.70932812 10.3161667,9.94120312 C9.45417949,11.0458906 8.31539744,11.6058906 6.93251282,11.6058906 C4.57975641,11.6058906 2.93642308,9.81870312 2.93642308,7.26042187 C2.93642308,4.68682812 4.56885897,2.88870312 6.90744872,2.88870312 C8.20315385,2.88870312 9.20680769,3.37104687 9.97725641,4.36198437 C10.1603333,4.59714062 10.4937949,4.65182812 10.7378974,4.48776562 L12.0837308,3.57557812 C12.2123205,3.48807812 12.2973205,3.35573437 12.3234744,3.20042187 C12.3485385,3.04729687 12.3103974,2.88760937 12.2177692,2.76292187 C11.0746282,1.23495312 9.51629487,0.434328125 7.45232051,0.317296875 C5.52129487,0.205734375 3.60552564,0.900265625 2.19321795,2.21823437 C0.80924359,3.50995312 0.0300769231,5.25448437 0.000653846154,7.12807812 C-0.0298589744,9.12198437 0.652320513,10.9332344 1.92187179,12.2293281 C3.18052564,13.5122969 4.96007692,14.2188594 6.93251282,14.2188594 C9.46616667,14.2188594 11.3241795,13.3383906 12.6133462,11.5282344 C12.7048846,11.4002656 12.7386667,11.2438594 12.7092436,11.0896406 C12.6809103,10.9365156 12.592641,10.8041719 12.4618718,10.7199531" id="Fill-1" fill="#000000" mask="url(#mask-2)"></path>
                    </g>
                    <path d="M39.2540897,6.4299375 C39.2540897,3.21759375 37.0462692,1.30025 33.3476795,1.30025 L30.1928718,1.30025 C29.6654359,1.30025 29.2371667,1.73009375 29.2371667,2.25946875 L29.2371667,14.2130625 C29.2371667,14.5247812 29.4888974,14.7785312 29.8005641,14.7785312 L31.5583205,14.7785312 C31.8688974,14.7785312 32.1217179,14.5247812 32.1217179,14.2130625 L32.1217179,11.4830625 L33.3476795,11.4830625 C33.6342821,11.4830625 33.8969103,11.4611875 34.1508205,11.4382187 L36.1101795,14.5182187 C36.2137051,14.6811875 36.3913333,14.7785312 36.5842179,14.7785312 L38.5097949,14.7785312 C38.7201154,14.7785312 38.9053718,14.6680625 39.0056282,14.4832187 C39.1047949,14.298375 39.0971667,14.0818125 38.9827436,13.9057187 L36.8522949,10.6047812 C38.403,9.818375 39.2540897,8.3418125 39.2540897,6.4299375 M36.3183205,6.4299375 C36.3183205,8.16571875 35.3495385,8.974 33.2703077,8.974 L32.1217179,8.974 L32.1217179,3.86071875 L33.2703077,3.86071875 C35.3495385,3.86071875 36.3183205,4.67775 36.3183205,6.4299375" id="Fill-4" fill="#000000"></path>
                    <path d="M51.1275,6.4299375 C51.1275,3.21759375 48.9196795,1.30025 45.2210897,1.30025 L42.0662821,1.30025 C41.5388462,1.30025 41.1105769,1.73009375 41.1105769,2.25946875 L41.1105769,14.2130625 C41.1105769,14.5247812 41.3633974,14.7785312 41.6739744,14.7785312 L43.4317308,14.7785312 C43.7423077,14.7785312 43.9951282,14.5247812 43.9951282,14.2130625 L43.9951282,11.4830625 L45.2210897,11.4830625 C45.5076923,11.4830625 45.7703205,11.4611875 46.0242308,11.4382187 L47.9835897,14.5182187 C48.0871154,14.6811875 48.2647436,14.7785312 48.4576282,14.7785312 L50.3832051,14.7785312 C50.5935256,14.7785312 50.7787821,14.6680625 50.8790385,14.4832187 C50.9792949,14.298375 50.9705769,14.0818125 50.8561538,13.9057187 L48.7257051,10.6036875 C50.2764103,9.818375 51.1275,8.3418125 51.1275,6.4299375 M48.1917308,6.4299375 C48.1917308,8.16571875 47.2229487,8.974 45.1437179,8.974 L43.9951282,8.974 L43.9951282,3.86071875 L45.1437179,3.86071875 C47.2229487,3.86071875 48.1917308,4.67775 48.1917308,6.4299375" id="Fill-6" fill="#000000"></path>
                    <path d="M62.9156923,1.30025 L61.1568462,1.30025 C60.847359,1.30025 60.5934487,1.554 60.5934487,1.86571875 L60.5934487,9.62259375 C60.5934487,11.4907187 59.7652436,12.3974375 58.0597949,12.3974375 C56.338,12.3974375 55.4999872,11.4907187 55.4999872,9.62259375 L55.4999872,1.86571875 C55.4999872,1.554 55.2482564,1.30025 54.9365897,1.30025 L53.1788333,1.30025 C52.8682564,1.30025 52.6154359,1.554 52.6154359,1.86571875 L52.6154359,9.70025 C52.6154359,13.02525 54.6597949,15.0104062 58.0859487,15.0104062 C61.4118462,15.0104062 63.4790897,12.9760313 63.4790897,9.70025 L63.4790897,1.86571875 C63.4790897,1.554 63.2262692,1.30025 62.9156923,1.30025" id="Fill-8" fill="#000000"></path>
                    <g id="Group-12" transform="translate(64.294872, 0.791875)">
                        <mask id="mask-4" fill="white">
                            <use xlink:href="#path-3"></use>
                        </mask>
                        <g id="Clip-11"></g>
                        <path d="M6.16478846,5.901 L5.34530128,5.54115625 C4.30350641,5.07084375 3.80876282,4.711 3.80876282,3.9388125 C3.80876282,3.184125 4.33292949,2.73459375 5.21344231,2.73459375 C5.90542949,2.73459375 6.45792949,3.00475 6.94940385,3.5844375 C7.14010897,3.80865625 7.46376282,3.85459375 7.70132692,3.6894375 L8.89895513,2.86146875 C9.02754487,2.77178125 9.11472436,2.63178125 9.13760897,2.475375 C9.16049359,2.3200625 9.11690385,2.1625625 9.01991667,2.04115625 C8.07075,0.8544375 6.84369872,0.30209375 5.16222436,0.30209375 C2.72664744,0.30209375 1.02555769,1.81803125 1.02555769,3.99021875 C1.02555769,6.37021875 2.66889103,7.37428125 4.43972436,8.1038125 L5.23741667,8.46475 C6.82517308,9.15271875 7.25998077,9.55740625 7.25998077,10.350375 C7.25998077,11.1630312 6.46773718,11.7088125 5.28972436,11.7088125 C4.09972436,11.7088125 3.21267308,11.2220937 2.57844231,10.219125 C2.41825,9.965375 2.09023718,9.877875 1.83196795,10.0189687 L0.450173077,10.7714687 C0.315044872,10.84475 0.213698718,10.9738125 0.173378205,11.1236562 C0.133057692,11.2745937 0.154852564,11.4299062 0.23549359,11.5611562 C1.26203205,13.251 3.11459615,14.217875 5.31587821,14.217875 C8.27889103,14.217875 10.1194679,12.726 10.1194679,10.324125 C10.1194679,7.99990625 8.60472436,6.90834375 6.16478846,5.901" id="Fill-10" fill="#000000" mask="url(#mask-4)"></path>
                    </g>
                </g>
                <mask id="mask-6" fill="white">
                    <use xlink:href="#path-5"></use>
                </mask>
                <g id="Clip-2"></g>
                <path d="M20.6308077,34.4659219 C16.7665769,34.4659219 13.6215769,31.3104531 13.6215769,27.4309219 C13.6215769,23.5524844 16.7665769,20.3959219 20.6308077,20.3959219 C24.4950385,20.3959219 27.6400385,23.5524844 27.6400385,27.4309219 C27.6400385,31.3104531 24.4950385,34.4659219 20.6308077,34.4659219 M20.6308077,23.1926406 C18.3020256,23.1926406 16.4080513,25.0946719 16.4080513,27.4309219 C16.4080513,29.7682656 18.3020256,31.6702969 20.6308077,31.6702969 C22.9595897,31.6702969 24.8535641,29.7682656 24.8535641,27.4309219 C24.8535641,25.0946719 22.9595897,23.1926406 20.6308077,23.1926406 M81.1388205,25.6579531 C78.5354231,11.3932656 66.0611282,0.546546875 51.1076667,0.546546875 C39.1193974,0.546546875 28.266641,7.58045313 23.3115769,18.5059219 C24.2607436,18.7902969 25.1543333,19.2496719 25.9443974,19.8643594 C30.3927308,9.92326563 40.2331154,3.51498438 51.1076667,3.51498438 C64.5768974,3.51498438 75.8197821,13.2602969 78.2106795,26.0943594 C76.8201667,26.8402969 75.8720897,28.3102969 75.8720897,30.0001406 C75.8720897,32.4413906 77.8510641,34.4276406 80.2822821,34.4276406 C82.7145897,34.4276406 84.6935641,32.4413906 84.6935641,30.0001406 C84.6935641,27.8531094 83.1624744,26.0593594 81.1388205,25.6579531 M80.2822821,31.8617031 C79.2601026,31.8617031 78.4275385,31.0260781 78.4275385,30.0001406 C78.4275385,28.9731094 79.2601026,28.1385781 80.2822821,28.1385781 C81.3055513,28.1385781 82.1381154,28.9731094 82.1381154,30.0001406 C82.1381154,31.0260781 81.3055513,31.8617031 80.2822821,31.8617031" id="Fill-1" fill="url(#linearGradient-7)" mask="url(#mask-6)"></path>
            </g>
        </g>
    </g>
</svg>